# xmcd
#
# Track frame offsets: 
#        150
#        12045
#        22868
#        41569
#        55831
#        88530
#        107159
#        118315
#        131530
#        141266
#        160208
#        184559
#        208009
#        226173
#        239714
#
# Disc length: 3533 seconds
#
# Revision: 0
# Processed by: cddbd v1.5.1PL2 Copyright (c) Steve Scherf et al.
# Submitted via: ExactAudioCopy v0.95a5
#
DISCID=c50dcb0f
DTITLE=John Lee Hooker - John Lee Hooker - The Ultimate Collection (19
DTITLE=48-1990) Disc 2
DYEAR=1900
DGENRE=Blues
TTITLE0=Boom Boom
TTITLE1=Big Legs, Tight Skirt
TTITLE2=You Know, I Know
TTITLE3=One Bourbon, One Scotch, One Beer 
TTITLE4=Let's Go Out Tonight
TTITLE5=I Cover the Waterfront
TTITLE6=She's Mine (Keep Your Hands to Yourself)
TTITLE7=Back Biters and Syndicators
TTITLE8=Think Twice Before You Go
TTITLE9=Shake It Baby 
TTITLE10=I'm Bad Like Jesse James
TTITLE11=Peavine
TTITLE12=Burning Hell
TTITLE13=Terraplane Blues
TTITLE14=I'm in the Mood
EXTD=
EXTT0=
EXTT1=
EXTT2=
EXTT3=
EXTT4=
EXTT5=
EXTT6=
EXTT7=
EXTT8=
EXTT9=
EXTT10=
EXTT11=
EXTT12=
EXTT13=
EXTT14=
PLAYORDER=
